<svg width="32" height="32" viewBox="0 0 32 32" fill="none" xmlns="http://www.w3.org/2000/svg">
<circle cx="16" cy="16.0002" r="16" fill="#FAFAFC"/>
<path d="M19.3808 12.0668C19.4632 12.0668 19.5291 12.0998 19.5786 12.1657C19.6445 12.2152 19.6775 12.2811 19.6775 12.3635V14.317C19.6775 14.3994 19.6445 14.4736 19.5786 14.5395C19.5291 14.589 19.4632 14.6137 19.3808 14.6137H16.9328C16.8503 14.6137 16.8091 14.6549 16.8091 14.7374V24.4305C16.8091 24.5129 16.7762 24.5871 16.7102 24.653C16.6608 24.7025 16.5948 24.7272 16.5124 24.7272H14.2375C14.1551 24.7272 14.0809 24.7025 14.0149 24.653C13.9655 24.5871 13.9408 24.5129 13.9408 24.4305V14.7374C13.9408 14.6549 13.8995 14.6137 13.8171 14.6137H12.284C12.2016 14.6137 12.1274 14.589 12.0615 14.5395C12.012 14.4736 11.9873 14.3994 11.9873 14.317V12.3635C11.9873 12.2811 12.012 12.2152 12.0615 12.1657C12.1274 12.0998 12.2016 12.0668 12.284 12.0668H13.8171C13.8995 12.0668 13.9408 12.0256 13.9408 11.9432V11.4981C13.9408 10.4265 14.0809 9.6023 14.3611 9.02533C14.6414 8.43187 15.1029 8.01151 15.7459 7.76423C16.3888 7.51696 17.2954 7.40156 18.4659 7.41805H19.3313C19.4137 7.41805 19.4797 7.45102 19.5291 7.51696C19.5951 7.56641 19.628 7.63235 19.628 7.71478V9.44569C19.628 9.52812 19.5951 9.6023 19.5291 9.66824C19.4797 9.7177 19.4137 9.74242 19.3313 9.74242H18.6884C17.9795 9.74242 17.485 9.88254 17.2048 10.1628C16.941 10.443 16.8091 10.9541 16.8091 11.6959V11.9432C16.8091 12.0256 16.8503 12.0668 16.9328 12.0668H19.3808Z" fill="#42454A"/>
</svg>
