<svg width="32" height="32" viewBox="0 0 32 32" fill="none" xmlns="http://www.w3.org/2000/svg">
<circle cx="16" cy="16" r="16" fill="#FAFAFC"/>
<path d="M21.7882 8.14478H10.1354C8.81977 8.14478 7.81738 9.14717 7.81738 10.4628V22.1156C7.81738 23.4312 8.81977 24.4336 10.1354 24.4336H21.7882C23.1038 24.4336 24.1062 23.4312 24.1062 22.1156V10.4628C24.1062 9.14717 23.1038 8.14478 21.7882 8.14478ZM15.9618 21.1758C18.6557 21.1758 20.8485 19.0458 20.8485 16.4771C20.8485 16.3056 20.8389 16.1245 20.8197 15.945C20.7778 15.5532 21.0674 15.1615 21.4615 15.1615C21.7803 15.1615 22.0388 15.42 22.0388 15.7388V21.8023C22.0388 22.1156 21.7882 22.4288 21.4123 22.4288H10.5113C10.1981 22.4288 9.88481 22.1782 9.88481 21.8023V15.7184C9.88481 15.3762 10.1622 15.0989 10.5044 15.0989C10.916 15.0989 11.2115 15.4945 11.1661 15.9036C11.1472 16.0739 11.1378 16.2442 11.1378 16.4145C11.0752 19.0458 13.2679 21.1758 15.9618 21.1758ZM15.9618 19.2964C14.2076 19.2964 12.8293 17.9181 12.8293 16.2265C12.8293 14.535 14.2076 13.1567 15.9618 13.1567C17.716 13.1567 19.0943 14.535 19.0943 16.2265C19.0943 17.9807 17.716 19.2964 15.9618 19.2964ZM21.9761 12.5929C21.9761 12.9688 21.6629 13.282 21.287 13.282H19.5328C19.1569 13.282 18.8437 12.9688 18.8437 12.5929V10.9013C18.8437 10.5255 19.1569 10.2122 19.5328 10.2122H21.287C21.6629 10.2122 21.9761 10.5255 21.9761 10.9013V12.5929Z" fill="#42454A"/>
</svg>
