<svg width="32" height="32" viewBox="0 0 32 32" fill="none" xmlns="http://www.w3.org/2000/svg">
<circle cx="16" cy="16" r="16" fill="#FAFAFC"/>
<path d="M24.2693 11.158C23.6876 11.4001 23.0227 11.5614 22.3579 11.6421C23.0227 11.2387 23.6045 10.5932 23.8538 9.86706C23.1889 10.2705 22.5241 10.5125 21.693 10.6739C21.1113 10.0284 20.1971 9.625 19.2829 9.625C17.4546 9.625 15.9587 11.0773 15.9587 12.8524C15.9587 13.0944 15.9587 13.3365 16.0418 13.5785C13.2993 13.4172 10.8061 12.1262 9.14395 10.1898C8.89463 10.6739 8.72842 11.2387 8.72842 11.8035C8.72842 12.9331 9.31017 13.9013 10.2243 14.4661C9.64259 14.4661 9.14395 14.3047 8.72842 14.0627C8.72842 15.5957 9.89191 16.9673 11.3878 17.2094C11.1385 17.29 10.8061 17.2901 10.4737 17.2901C10.2243 17.2901 10.0581 17.29 9.80881 17.2094C10.2243 18.5003 11.4709 19.4685 12.9668 19.4685C11.8034 20.3561 10.3906 20.8402 8.81153 20.8402C8.56221 20.8402 8.31289 20.8402 7.98047 20.7595C9.47638 21.647 11.2216 22.2118 13.1331 22.2118C19.2829 22.2118 22.6072 17.2901 22.6072 13.0138V12.6103C23.272 12.3683 23.8538 11.8035 24.2693 11.158Z" fill="#42454A"/>
</svg>
